<?xml version="1.0" standalone="no"?>
<!DOCTYPE svg PUBLIC "-//W3C//DTD SVG 20010904//EN"
 "http://www.w3.org/TR/2001/REC-SVG-20010904/DTD/svg10.dtd">
<svg version="1.0" xmlns="http://www.w3.org/2000/svg"
 width="2000.000000pt" height="2000.000000pt" viewBox="0 0 2000.000000 2000.000000"
 preserveAspectRatio="xMidYMid meet">

<g transform="translate(0.000000,2000.000000) scale(0.100000,-0.100000)"
fill="#000000" stroke="none">
<path d="M7765 19381 c-310 -81 -541 -208 -745 -411 -350 -348 -555 -861 -621
-1550 -15 -159 -15 -596 0 -765 46 -505 143 -952 288 -1320 65 -164 105 -245
181 -369 290 -472 804 -977 1501 -1476 154 -110 409 -278 529 -349 39 -24 72
-47 72 -52 0 -20 -81 -61 -137 -69 -301 -42 -765 250 -1383 869 -209 210 -295
306 -415 466 -444 592 -714 1338 -789 2180 -16 172 -20 615 -7 755 5 52 7 96
6 98 -4 4 -59 -224 -85 -353 -58 -282 -107 -638 -131 -960 -12 -170 -16 -660
-5 -810 28 -406 84 -783 152 -1020 189 -662 776 -1313 1659 -1842 239 -143
561 -309 765 -393 88 -37 80 -40 -37 -15 -483 102 -1018 342 -1444 646 -523
373 -784 707 -965 1232 -148 431 -225 1032 -195 1537 5 91 8 166 6 168 -7 7
-98 -289 -129 -419 -74 -308 -100 -530 -100 -859 -1 -732 186 -1331 571 -1825
354 -455 934 -888 1488 -1112 72 -29 121 -53 110 -53 -34 0 -247 47 -360 80
-293 84 -582 220 -739 347 -100 81 -334 311 -425 418 -246 287 -438 601 -590
961 -128 304 -214 649 -251 998 -6 55 -13 102 -15 105 -12 11 -4 -465 10 -584
58 -516 234 -1034 495 -1455 25 -41 59 -104 74 -140 420 -958 1200 -1507 2276
-1601 133 -12 540 -7 605 7 54 12 19 -6 -71 -37 -349 -119 -818 -152 -1168
-82 -93 19 -223 71 -451 183 -939 461 -1568 1195 -1760 2053 -23 106 -35 181
-49 327 -3 25 -6 88 -7 140 l-1 95 -14 -85 c-43 -276 -14 -638 77 -955 67
-235 206 -543 333 -739 32 -49 66 -112 77 -140 38 -97 151 -302 234 -426 461
-687 1276 -1139 2240 -1241 244 -26 748 -17 1119 21 50 5 92 8 94 6 4 -5 -173
-47 -317 -76 -149 -30 -415 -68 -566 -80 -71 -6 -157 -13 -190 -16 -123 -10
-576 -4 -750 11 -729 61 -1308 234 -1732 514 -299 198 -496 436 -599 721 -27
73 -24 41 6 -80 131 -525 676 -1002 1445 -1266 368 -127 700 -201 1120 -251
215 -25 798 -25 1005 0 189 24 216 27 270 37 25 5 46 7 48 5 5 -4 -109 -66
-248 -136 -245 -121 -535 -223 -807 -283 -311 -68 -482 -85 -826 -83 l-257 2
107 -27 c233 -58 451 -87 708 -93 368 -9 704 37 1061 145 213 64 328 113 719
310 331 166 513 246 601 265 24 5 4 -19 -111 -130 -223 -219 -374 -331 -665
-494 -158 -88 -158 -90 6 -66 264 37 494 105 686 200 62 31 211 122 333 203
225 149 407 264 411 259 8 -8 54 -265 64 -352 14 -127 14 -369 -1 -488 -49
-414 -223 -826 -510 -1207 -210 -279 -390 -445 -592 -546 -185 -94 -359 -134
-572 -135 -349 -1 -565 95 -663 294 -123 250 -49 544 175 693 130 86 308 127
454 105 44 -7 99 -19 122 -27 65 -23 30 0 -43 29 -199 76 -437 57 -618 -51
-66 -39 -154 -120 -193 -178 -180 -264 -152 -643 65 -872 152 -160 427 -262
751 -279 311 -15 655 79 908 248 69 47 68 46 -58 -94 -89 -98 -239 -233 -318
-285 -29 -19 -56 -38 -61 -43 -11 -10 41 3 132 33 35 11 65 18 67 17 4 -5
-134 -115 -230 -181 -242 -169 -522 -294 -785 -349 -137 -29 -379 -32 -484 -6
-193 48 -333 135 -448 278 -80 101 -121 195 -138 319 -7 51 -7 49 -9 -35 -1
-108 16 -181 68 -290 164 -345 564 -533 1050 -494 229 18 515 95 728 194 53
25 98 44 99 42 5 -4 -161 -195 -244 -281 -85 -88 -325 -267 -717 -537 -378
-259 -522 -362 -685 -489 -581 -453 -933 -899 -1093 -1388 -98 -298 -124 -558
-83 -827 14 -92 55 -259 62 -252 3 2 -3 51 -12 108 -22 138 -15 382 16 524 65
305 201 589 410 857 92 117 323 346 466 460 100 80 316 238 374 273 16 10 -1
-11 -131 -161 -312 -359 -547 -745 -680 -1116 -114 -319 -158 -647 -125 -933
47 -407 194 -733 441 -981 131 -132 200 -179 85 -58 -188 197 -311 442 -372
745 -20 100 -23 142 -22 339 0 208 2 234 28 350 64 288 168 533 346 817 125
198 344 465 535 653 l86 85 -69 -135 c-322 -621 -393 -1270 -201 -1842 72
-213 201 -432 343 -583 l76 -80 -70 95 c-211 286 -324 668 -314 1067 12 534
211 1027 628 1562 92 119 273 327 336 386 l42 40 -56 -89 c-455 -710 -658
-1389 -590 -1970 54 -457 281 -851 626 -1085 73 -49 224 -118 323 -147 131
-38 328 -45 474 -14 367 75 633 308 713 624 28 112 21 274 -17 396 -65 208
-201 375 -368 453 -86 41 -107 41 -32 0 83 -45 195 -153 244 -236 129 -219
146 -478 45 -679 -90 -178 -285 -324 -509 -379 -122 -31 -315 -31 -426 -1
-329 89 -609 384 -728 767 -48 156 -61 263 -56 470 3 152 9 203 35 328 89 434
323 913 689 1411 l66 91 7 -96 c36 -512 432 -982 953 -1131 117 -33 328 -33
435 0 279 87 475 308 497 557 20 244 -186 496 -424 518 -56 5 -76 -9 -21 -15
155 -18 317 -185 349 -363 36 -195 -108 -407 -336 -496 -241 -95 -535 -11
-782 224 -147 140 -254 311 -309 492 -24 80 -27 106 -27 240 0 165 13 239 73
409 78 221 182 406 335 596 64 80 119 146 123 147 4 2 20 -38 36 -88 79 -252
257 -505 461 -658 344 -258 794 -264 1084 -14 57 49 135 162 163 235 61 162
57 343 -13 479 -51 100 -175 197 -298 233 -65 19 -190 20 -246 1 l-40 -13 60
5 c115 10 249 -41 338 -130 220 -217 108 -602 -209 -719 -49 -18 -81 -21 -184
-22 -116 0 -131 2 -208 31 -236 90 -427 305 -527 595 -37 106 -72 310 -57 333
4 5 7 64 7 130 l0 120 46 70 c66 99 194 323 249 437 l48 96 6 -67 c8 -77 44
-164 76 -181 29 -16 40 0 40 56 0 65 45 225 89 320 99 211 204 338 666 804
426 431 551 576 723 838 222 340 380 775 453 1248 30 191 32 477 5 619 -54
289 -153 475 -455 852 -248 311 -353 465 -441 648 -69 143 -93 228 -94 335 -1
111 14 152 91 253 26 34 48 64 50 65 1 2 41 -37 90 -86 85 -87 200 -170 308
-225 28 -13 148 -64 269 -111 120 -48 269 -111 330 -141 303 -147 485 -323
630 -610 50 -99 121 -303 131 -377 4 -27 11 -48 15 -48 11 0 30 74 41 167 18
142 -13 367 -76 557 -73 222 -209 527 -305 686 l-51 85 10 65 c34 207 34 391
3 504 -33 115 -76 209 -137 300 -150 225 -338 383 -721 606 -289 167 -388 229
-493 306 -279 205 -433 450 -487 773 -12 78 -15 137 -11 230 l5 126 -20 -45
c-41 -94 -60 -199 -65 -360 -7 -211 18 -345 101 -545 16 -38 12 -36 -63 42
-229 238 -369 563 -442 1032 -13 86 -20 81 -43 -35 -88 -433 22 -848 321
-1216 69 -85 230 -240 310 -298 35 -25 63 -48 63 -51 0 -3 -24 -11 -52 -19
-78 -19 -251 -111 -352 -186 -48 -36 -90 -64 -92 -61 -2 2 -11 41 -20 88 -8
46 -75 329 -149 629 -177 721 -223 941 -279 1320 -5 32 -27 252 -41 405 -10
102 -7 474 5 600 68 743 311 1321 745 1775 49 52 77 86 60 76 -165 -103 -442
-363 -573 -538 -331 -443 -542 -999 -613 -1618 -12 -104 -12 -105 -59 -160
-142 -165 -247 -391 -302 -655 -20 -98 -23 -137 -23 -360 0 -217 3 -267 23
-378 56 -310 155 -632 346 -1126 58 -151 105 -275 104 -277 -3 -3 -89 98 -212
251 -253 311 -342 526 -353 845 -7 205 11 337 72 515 10 28 -34 -24 -89 -105
-98 -147 -171 -335 -202 -519 -26 -161 -16 -389 24 -541 63 -235 164 -437 391
-780 38 -58 68 -107 66 -109 -8 -7 -422 374 -610 563 -519 521 -674 750 -675
998 0 102 38 223 89 282 15 18 15 18 -6 7 -26 -13 -84 -83 -108 -130 -73 -145
-84 -342 -29 -514 9 -27 14 -50 12 -52 -2 -2 -54 42 -116 98 -125 113 -179
186 -276 377 -105 204 -164 395 -186 599 -19 177 9 357 77 499 27 57 56 96
110 150 57 57 66 69 41 56 -170 -86 -301 -298 -348 -564 -24 -131 -17 -350 16
-524 8 -43 13 -81 10 -84 -9 -8 -451 440 -560 568 -421 493 -638 932 -696
1412 -20 161 -8 511 23 690 51 288 164 670 301 1012 30 77 54 141 52 143 -4 5
-208 -402 -259 -517 -389 -889 -414 -1540 -87 -2265 l59 -130 -40 45 c-169
189 -341 433 -419 593 -271 560 -300 1381 -79 2217 162 613 434 1127 703 1328
37 28 25 27 -109 -7z m3300 -3803 c-12 -302 22 -743 90 -1143 19 -110 32 -201
30 -203 -6 -7 -124 306 -154 413 -58 199 -74 318 -74 530 -1 159 3 207 21 293
22 98 78 272 89 272 3 0 2 -73 -2 -162z"/>
</g>
</svg>
