<?xml version="1.0" encoding="UTF-8"?>
<svg xmlns="http://www.w3.org/2000/svg" xmlns:xlink="http://www.w3.org/1999/xlink" width="80px" height="80px" viewBox="0 0 200 200" version="1.1">
<g id="surface1">
<path style=" stroke:none;fill-rule:nonzero;fill:rgb(0%,0%,0%);fill-opacity:1;" d="M 77.648438 6.191406 C 74.550781 7 72.238281 8.269531 70.199219 10.300781 C 66.699219 13.78125 64.648438 18.910156 63.988281 25.800781 C 63.839844 27.390625 63.839844 31.761719 63.988281 33.449219 C 64.449219 38.5 65.421875 42.96875 66.871094 46.648438 C 67.519531 48.289062 67.921875 49.101562 68.679688 50.339844 C 71.578125 55.058594 76.71875 60.109375 83.691406 65.101562 C 85.230469 66.199219 87.78125 67.878906 88.980469 68.589844 C 89.371094 68.828125 89.699219 69.058594 89.699219 69.109375 C 89.699219 69.308594 88.890625 69.71875 88.328125 69.800781 C 85.320312 70.21875 80.679688 67.300781 74.5 61.109375 C 72.410156 59.011719 71.550781 58.050781 70.351562 56.449219 C 65.910156 50.53125 63.210938 43.070312 62.460938 34.648438 C 62.300781 32.929688 62.261719 28.5 62.390625 27.101562 C 62.441406 26.578125 62.460938 26.140625 62.449219 26.121094 C 62.410156 26.078125 61.859375 28.359375 61.601562 29.648438 C 61.019531 32.46875 60.53125 36.03125 60.289062 39.25 C 60.171875 40.949219 60.128906 45.851562 60.238281 47.351562 C 60.519531 51.410156 61.078125 55.179688 61.761719 57.550781 C 63.648438 64.171875 69.519531 70.679688 78.351562 75.96875 C 80.738281 77.398438 83.960938 79.058594 86 79.898438 C 86.878906 80.269531 86.800781 80.300781 85.628906 80.050781 C 80.800781 79.03125 75.449219 76.628906 71.191406 73.589844 C 65.960938 69.859375 63.351562 66.519531 61.539062 61.269531 C 60.058594 56.960938 59.289062 50.949219 59.589844 45.898438 C 59.640625 44.988281 59.671875 44.238281 59.648438 44.21875 C 59.578125 44.148438 58.671875 47.109375 58.359375 48.410156 C 57.621094 51.488281 57.359375 53.710938 57.359375 57 C 57.351562 64.320312 59.21875 70.308594 63.070312 75.25 C 66.609375 79.800781 72.410156 84.128906 77.949219 86.371094 C 78.671875 86.660156 79.160156 86.898438 79.050781 86.898438 C 78.710938 86.898438 76.578125 86.429688 75.449219 86.101562 C 72.519531 85.261719 69.628906 83.898438 68.058594 82.628906 C 67.058594 81.820312 64.71875 79.519531 63.808594 78.449219 C 61.351562 75.578125 59.429688 72.441406 57.910156 68.839844 C 56.628906 65.800781 55.769531 62.351562 55.398438 58.859375 C 55.339844 58.308594 55.269531 57.839844 55.25 57.808594 C 55.128906 57.699219 55.210938 62.460938 55.351562 63.648438 C 55.929688 68.808594 57.691406 73.988281 60.300781 78.199219 C 60.550781 78.609375 60.890625 79.238281 61.039062 79.601562 C 65.238281 89.179688 73.039062 94.671875 83.800781 95.609375 C 85.128906 95.730469 89.199219 95.679688 89.851562 95.539062 C 90.390625 95.421875 90.039062 95.601562 89.140625 95.910156 C 85.648438 97.101562 80.960938 97.429688 77.460938 96.730469 C 76.53125 96.539062 75.230469 96.019531 72.949219 94.898438 C 63.558594 90.289062 57.269531 82.949219 55.351562 74.371094 C 55.121094 73.308594 55 72.558594 54.859375 71.101562 C 54.828125 70.851562 54.800781 70.21875 54.789062 69.699219 L 54.78125 68.75 L 54.640625 69.601562 C 54.210938 72.359375 54.5 75.980469 55.410156 79.148438 C 56.078125 81.5 57.46875 84.578125 58.738281 86.539062 C 59.058594 87.03125 59.398438 87.660156 59.511719 87.941406 C 59.890625 88.910156 61.019531 90.960938 61.851562 92.199219 C 66.460938 99.070312 74.609375 103.589844 84.25 104.609375 C 86.691406 104.871094 91.730469 104.78125 95.441406 104.398438 C 95.941406 104.351562 96.359375 104.320312 96.378906 104.339844 C 96.421875 104.390625 94.648438 104.808594 93.210938 105.101562 C 91.71875 105.398438 89.058594 105.78125 87.550781 105.898438 C 86.839844 105.960938 85.980469 106.03125 85.648438 106.058594 C 84.421875 106.160156 79.890625 106.101562 78.148438 105.949219 C 70.859375 105.339844 65.070312 103.609375 60.828125 100.808594 C 57.839844 98.828125 55.871094 96.449219 54.839844 93.601562 C 54.570312 92.871094 54.601562 93.191406 54.898438 94.398438 C 56.210938 99.648438 61.660156 104.421875 69.351562 107.058594 C 73.03125 108.328125 76.351562 109.070312 80.550781 109.570312 C 82.699219 109.820312 88.53125 109.820312 90.601562 109.570312 C 92.488281 109.328125 92.761719 109.300781 93.300781 109.199219 C 93.550781 109.148438 93.761719 109.128906 93.78125 109.148438 C 93.828125 109.191406 92.691406 109.808594 91.300781 110.511719 C 88.851562 111.71875 85.949219 112.738281 83.230469 113.339844 C 80.121094 114.019531 78.410156 114.191406 74.96875 114.171875 L 72.398438 114.148438 L 73.46875 114.421875 C 75.800781 115 77.980469 115.289062 80.550781 115.351562 C 84.230469 115.441406 87.589844 114.980469 91.160156 113.898438 C 93.289062 113.261719 94.441406 112.769531 98.351562 110.800781 C 101.660156 109.140625 103.480469 108.339844 104.359375 108.148438 C 104.601562 108.101562 104.398438 108.339844 103.25 109.449219 C 101.019531 111.640625 99.511719 112.761719 96.601562 114.390625 C 95.019531 115.269531 95.019531 115.289062 96.660156 115.050781 C 99.300781 114.679688 101.601562 114 103.519531 113.050781 C 104.140625 112.738281 105.628906 111.828125 106.851562 111.019531 C 109.101562 109.53125 110.921875 108.378906 110.960938 108.429688 C 111.039062 108.511719 111.5 111.078125 111.601562 111.949219 C 111.738281 113.21875 111.738281 115.640625 111.589844 116.828125 C 111.101562 120.96875 109.359375 125.089844 106.488281 128.898438 C 104.390625 131.691406 102.589844 133.351562 100.570312 134.359375 C 98.71875 135.300781 96.980469 135.699219 94.851562 135.710938 C 91.359375 135.71875 89.199219 134.761719 88.21875 132.769531 C 86.988281 130.269531 87.730469 127.328125 89.96875 125.839844 C 91.269531 124.980469 93.050781 124.570312 94.511719 124.789062 C 94.949219 124.859375 95.5 124.980469 95.730469 125.058594 C 96.378906 125.289062 96.03125 125.058594 95.300781 124.769531 C 93.308594 124.011719 90.929688 124.199219 89.121094 125.28125 C 88.460938 125.671875 87.578125 126.480469 87.191406 127.058594 C 85.390625 129.699219 85.671875 133.488281 87.839844 135.78125 C 89.359375 137.378906 92.109375 138.398438 95.351562 138.570312 C 98.460938 138.71875 101.898438 137.78125 104.429688 136.089844 C 105.121094 135.621094 105.109375 135.628906 103.851562 137.03125 C 102.960938 138.011719 101.460938 139.359375 100.671875 139.878906 C 100.378906 140.070312 100.109375 140.261719 100.058594 140.308594 C 99.949219 140.410156 100.46875 140.28125 101.378906 139.980469 C 101.730469 139.871094 102.03125 139.800781 102.050781 139.808594 C 102.089844 139.859375 100.710938 140.960938 99.75 141.621094 C 97.328125 143.308594 94.53125 144.558594 91.898438 145.109375 C 90.53125 145.398438 88.109375 145.429688 87.058594 145.171875 C 85.128906 144.691406 83.730469 143.820312 82.578125 142.390625 C 81.78125 141.378906 81.371094 140.441406 81.199219 139.199219 C 81.128906 138.691406 81.128906 138.710938 81.109375 139.550781 C 81.101562 140.628906 81.269531 141.359375 81.789062 142.449219 C 83.429688 145.898438 87.429688 147.78125 92.289062 147.390625 C 94.578125 147.210938 97.441406 146.441406 99.570312 145.449219 C 100.101562 145.199219 100.550781 145.011719 100.558594 145.03125 C 100.609375 145.070312 98.949219 146.980469 98.121094 147.839844 C 97.269531 148.71875 94.871094 150.511719 90.949219 153.210938 C 87.171875 155.800781 85.730469 156.828125 84.101562 158.101562 C 78.289062 162.628906 74.769531 167.089844 73.171875 171.980469 C 72.191406 174.960938 71.929688 177.558594 72.339844 180.25 C 72.480469 181.171875 72.890625 182.839844 72.960938 182.769531 C 72.988281 182.75 72.929688 182.261719 72.839844 181.691406 C 72.621094 180.308594 72.691406 177.871094 73 176.449219 C 73.648438 173.398438 75.011719 170.558594 77.101562 167.878906 C 78.019531 166.710938 80.328125 164.421875 81.761719 163.28125 C 82.761719 162.480469 84.921875 160.898438 85.5 160.550781 C 85.660156 160.449219 85.488281 160.660156 84.191406 162.160156 C 81.070312 165.75 78.71875 169.609375 77.390625 173.320312 C 76.25 176.511719 75.808594 179.789062 76.140625 182.648438 C 76.609375 186.71875 78.078125 189.980469 80.550781 192.460938 C 81.859375 193.78125 82.550781 194.25 81.398438 193.039062 C 79.519531 191.070312 78.289062 188.621094 77.679688 185.589844 C 77.480469 184.589844 77.449219 184.171875 77.460938 182.199219 C 77.460938 180.121094 77.480469 179.859375 77.738281 178.699219 C 78.378906 175.820312 79.421875 173.371094 81.199219 170.53125 C 82.449219 168.550781 84.640625 165.878906 86.550781 164 L 87.410156 163.148438 L 86.71875 164.5 C 83.5 170.710938 82.789062 177.199219 84.710938 182.921875 C 85.429688 185.050781 86.71875 187.238281 88.140625 188.75 L 88.898438 189.550781 L 88.199219 188.601562 C 86.089844 185.738281 84.960938 181.921875 85.058594 177.929688 C 85.179688 172.589844 87.171875 167.660156 91.339844 162.308594 C 92.261719 161.121094 94.070312 159.039062 94.699219 158.449219 L 95.121094 158.050781 L 94.558594 158.941406 C 90.011719 166.039062 87.980469 172.828125 88.660156 178.640625 C 89.199219 183.210938 91.46875 187.148438 94.921875 189.488281 C 95.648438 189.980469 97.160156 190.671875 98.148438 190.960938 C 99.460938 191.339844 101.429688 191.410156 102.890625 191.101562 C 106.558594 190.351562 109.21875 188.019531 110.019531 184.859375 C 110.300781 183.738281 110.230469 182.121094 109.851562 180.898438 C 109.199219 178.820312 107.839844 177.148438 106.171875 176.371094 C 105.308594 175.960938 105.101562 175.960938 105.851562 176.371094 C 106.679688 176.820312 107.800781 177.898438 108.289062 178.730469 C 109.578125 180.921875 109.75 183.511719 108.738281 185.519531 C 107.839844 187.300781 105.890625 188.761719 103.648438 189.308594 C 102.429688 189.621094 100.5 189.621094 99.390625 189.320312 C 96.101562 188.429688 93.300781 185.480469 92.109375 181.648438 C 91.628906 180.089844 91.5 179.019531 91.550781 176.949219 C 91.578125 175.429688 91.640625 174.921875 91.898438 173.671875 C 92.789062 169.328125 95.128906 164.539062 98.789062 159.558594 L 99.449219 158.648438 L 99.519531 159.609375 C 99.878906 164.730469 103.839844 169.429688 109.050781 170.921875 C 110.21875 171.25 112.328125 171.25 113.398438 170.921875 C 116.191406 170.050781 118.148438 167.839844 118.371094 165.351562 C 118.570312 162.910156 116.511719 160.390625 114.128906 160.171875 C 113.570312 160.121094 113.371094 160.261719 113.921875 160.320312 C 115.46875 160.5 117.089844 162.171875 117.410156 163.949219 C 117.769531 165.898438 116.328125 168.019531 114.050781 168.910156 C 111.640625 169.859375 108.699219 169.019531 106.230469 166.671875 C 104.761719 165.269531 103.691406 163.558594 103.140625 161.75 C 102.898438 160.949219 102.871094 160.691406 102.871094 159.351562 C 102.871094 157.699219 103 156.960938 103.601562 155.261719 C 104.378906 153.050781 105.421875 151.199219 106.949219 149.300781 C 107.589844 148.5 108.140625 147.839844 108.179688 147.828125 C 108.21875 147.808594 108.378906 148.210938 108.539062 148.710938 C 109.328125 151.230469 111.109375 153.761719 113.148438 155.289062 C 116.589844 157.871094 121.089844 157.929688 123.988281 155.429688 C 124.558594 154.941406 125.339844 153.808594 125.621094 153.078125 C 126.230469 151.460938 126.191406 149.648438 125.488281 148.289062 C 124.980469 147.289062 123.738281 146.320312 122.511719 145.960938 C 121.859375 145.769531 120.609375 145.761719 120.050781 145.949219 L 119.648438 146.078125 L 120.25 146.03125 C 121.398438 145.929688 122.738281 146.441406 123.628906 147.328125 C 125.828125 149.5 124.710938 153.351562 121.539062 154.519531 C 121.050781 154.699219 120.730469 154.730469 119.699219 154.738281 C 118.539062 154.738281 118.390625 154.71875 117.621094 154.429688 C 115.261719 153.53125 113.351562 151.378906 112.351562 148.480469 C 111.980469 147.421875 111.628906 145.378906 111.78125 145.148438 C 111.820312 145.101562 111.851562 144.511719 111.851562 143.851562 L 111.851562 142.648438 L 112.308594 141.949219 C 112.96875 140.960938 114.25 138.71875 114.800781 137.578125 L 115.28125 136.621094 L 115.339844 137.289062 C 115.421875 138.058594 115.78125 138.929688 116.101562 139.101562 C 116.390625 139.261719 116.5 139.101562 116.5 138.539062 C 116.5 137.890625 116.949219 136.289062 117.390625 135.339844 C 118.378906 133.230469 119.429688 131.960938 124.050781 127.300781 C 128.308594 122.988281 129.558594 121.539062 131.28125 118.921875 C 133.5 115.519531 135.078125 111.171875 135.808594 106.441406 C 136.109375 104.53125 136.128906 101.671875 135.859375 100.25 C 135.320312 97.359375 134.328125 95.5 131.308594 91.730469 C 128.828125 88.621094 127.78125 87.078125 126.898438 85.25 C 126.210938 83.820312 125.96875 82.96875 125.960938 81.898438 C 125.949219 80.789062 126.101562 80.378906 126.871094 79.371094 C 127.128906 79.03125 127.351562 78.730469 127.371094 78.71875 C 127.378906 78.699219 127.78125 79.089844 128.269531 79.578125 C 129.121094 80.449219 130.269531 81.28125 131.351562 81.828125 C 131.628906 81.960938 132.828125 82.46875 134.039062 82.941406 C 135.238281 83.421875 136.730469 84.050781 137.339844 84.351562 C 140.371094 85.820312 142.191406 87.578125 143.640625 90.449219 C 144.140625 91.441406 144.851562 93.480469 144.949219 94.21875 C 144.988281 94.488281 145.058594 94.699219 145.101562 94.699219 C 145.210938 94.699219 145.398438 93.960938 145.511719 93.03125 C 145.691406 91.609375 145.378906 89.359375 144.75 87.460938 C 144.019531 85.238281 142.660156 82.191406 141.699219 80.601562 L 141.191406 79.75 L 141.289062 79.101562 C 141.628906 77.03125 141.628906 75.191406 141.320312 74.058594 C 140.988281 72.910156 140.558594 71.96875 139.949219 71.058594 C 138.449219 68.808594 136.570312 67.230469 132.738281 65 C 129.851562 63.328125 128.859375 62.710938 127.808594 61.941406 C 125.019531 59.890625 123.480469 57.441406 122.941406 54.210938 C 122.820312 53.429688 122.789062 52.839844 122.828125 51.910156 L 122.878906 50.648438 L 122.679688 51.101562 C 122.269531 52.039062 122.078125 53.089844 122.03125 54.699219 C 121.960938 56.808594 122.210938 58.148438 123.039062 60.148438 C 123.199219 60.53125 123.160156 60.511719 122.410156 59.730469 C 120.121094 57.351562 118.71875 54.101562 117.988281 49.410156 C 117.859375 48.550781 117.789062 48.601562 117.558594 49.761719 C 116.679688 54.089844 117.78125 58.238281 120.769531 61.921875 C 121.460938 62.769531 123.070312 64.320312 123.871094 64.898438 C 124.21875 65.148438 124.5 65.378906 124.5 65.410156 C 124.5 65.441406 124.261719 65.519531 123.980469 65.601562 C 123.199219 65.789062 121.46875 66.710938 120.460938 67.460938 C 119.980469 67.820312 119.558594 68.101562 119.539062 68.070312 C 119.519531 68.050781 119.429688 67.660156 119.339844 67.191406 C 119.261719 66.730469 118.589844 63.898438 117.851562 60.898438 C 116.078125 53.691406 115.621094 51.488281 115.058594 47.699219 C 115.011719 47.378906 114.789062 45.179688 114.648438 43.648438 C 114.550781 42.628906 114.578125 38.910156 114.699219 37.648438 C 115.378906 30.21875 117.808594 24.441406 122.148438 19.898438 C 122.640625 19.378906 122.921875 19.039062 122.75 19.140625 C 121.101562 20.171875 118.328125 22.769531 117.019531 24.519531 C 113.710938 28.949219 111.601562 34.511719 110.890625 40.699219 C 110.769531 41.738281 110.769531 41.75 110.300781 42.300781 C 108.878906 43.949219 107.828125 46.210938 107.28125 48.851562 C 107.078125 49.828125 107.050781 50.21875 107.050781 52.449219 C 107.050781 54.621094 107.078125 55.121094 107.28125 56.230469 C 107.839844 59.328125 108.828125 62.550781 110.738281 67.488281 C 111.320312 69 111.789062 70.238281 111.78125 70.261719 C 111.75 70.289062 110.890625 69.28125 109.660156 67.75 C 107.128906 64.640625 106.238281 62.488281 106.128906 59.300781 C 106.058594 57.25 106.238281 55.929688 106.851562 54.148438 C 106.949219 53.871094 106.511719 54.390625 105.960938 55.199219 C 104.980469 56.671875 104.25 58.550781 103.941406 60.390625 C 103.679688 62 103.78125 64.28125 104.179688 65.800781 C 104.808594 68.148438 105.820312 70.171875 108.089844 73.601562 C 108.46875 74.179688 108.769531 74.671875 108.75 74.691406 C 108.671875 74.761719 104.53125 70.949219 102.648438 69.058594 C 97.460938 63.851562 95.910156 61.558594 95.898438 59.078125 C 95.898438 58.058594 96.28125 56.851562 96.789062 56.261719 C 96.941406 56.078125 96.941406 56.078125 96.730469 56.191406 C 96.46875 56.320312 95.890625 57.019531 95.648438 57.488281 C 94.921875 58.941406 94.808594 60.910156 95.359375 62.628906 C 95.449219 62.898438 95.5 63.128906 95.480469 63.148438 C 95.460938 63.171875 94.941406 62.730469 94.320312 62.171875 C 93.070312 61.039062 92.53125 60.308594 91.558594 58.398438 C 90.511719 56.359375 89.921875 54.449219 89.699219 52.410156 C 89.511719 50.640625 89.789062 48.839844 90.46875 47.421875 C 90.738281 46.851562 91.03125 46.460938 91.570312 45.921875 C 92.140625 45.351562 92.230469 45.230469 91.980469 45.359375 C 90.28125 46.21875 88.96875 48.339844 88.5 51 C 88.261719 52.308594 88.328125 54.5 88.660156 56.238281 C 88.738281 56.671875 88.789062 57.050781 88.761719 57.078125 C 88.671875 57.160156 84.25 52.679688 83.160156 51.398438 C 78.949219 46.46875 76.78125 42.078125 76.199219 37.28125 C 76 35.671875 76.121094 32.171875 76.429688 30.378906 C 76.941406 27.5 78.070312 23.679688 79.441406 20.261719 C 79.738281 19.488281 79.980469 18.851562 79.960938 18.828125 C 79.921875 18.78125 77.878906 22.851562 77.371094 24 C 73.480469 32.890625 73.230469 39.398438 76.5 46.648438 L 77.089844 47.949219 L 76.691406 47.5 C 75 45.609375 73.28125 43.171875 72.5 41.570312 C 69.789062 35.96875 69.5 27.761719 71.710938 19.398438 C 73.328125 13.269531 76.050781 8.128906 78.738281 6.121094 C 79.109375 5.839844 78.988281 5.851562 77.648438 6.191406 Z M 110.648438 44.21875 C 110.53125 47.238281 110.871094 51.648438 111.550781 55.648438 C 111.738281 56.75 111.871094 57.660156 111.851562 57.679688 C 111.789062 57.75 110.609375 54.621094 110.308594 53.550781 C 109.730469 51.558594 109.570312 50.371094 109.570312 48.25 C 109.558594 46.660156 109.601562 46.179688 109.78125 45.320312 C 110 44.339844 110.558594 42.601562 110.671875 42.601562 C 110.699219 42.601562 110.691406 43.328125 110.648438 44.21875 Z M 110.648438 44.21875 "/>
</g>
</svg>
